# xmcd
#
# Track frame offsets: 
#        150
#        35556
#        62735
#        80662
#        98449
#        123315
#        136314
#        159390
#        181316
#        196713
#
# Disc length: 2871 seconds
#
# Revision: 1
# Processed by: cddbd v1.5.2PL0 Copyright (c) Steve Scherf et al.
# Submitted via: ExactAudioCopy v1.0b1
#
DISCID=7a0b350a
DTITLE=Joe Louis Walker - Playin' Dirty
DYEAR=2006
DGENRE=Blues
TTITLE0=Nobody Wanta Know Ya
TTITLE1=Barefoot Rock
TTITLE2=I Got Loaded
TTITLE3=Poor Man Plead
TTITLE4=Woman Was Made To Be Loved
TTITLE5=Pickin' The Blues
TTITLE6=Ain't It Nice To Be Loved
TTITLE7=Juicy Fruit
TTITLE8=Ready And Able
TTITLE9=From The Projects To Paris
EXTD=
EXTT0=
EXTT1=
EXTT2=
EXTT3=
EXTT4=
EXTT5=
EXTT6=
EXTT7=
EXTT8=
EXTT9=
PLAYORDER=
